<?xml version="1.0" encoding="utf-8"?>
<!-- Generator: Adobe Illustrator 23.0.2, SVG Export Plug-In . SVG Version: 6.00 Build 0)  -->
<svg version="1.1" id="Layer_1" xmlns="http://www.w3.org/2000/svg" xmlns:xlink="http://www.w3.org/1999/xlink" x="0px" y="0px"
	 viewBox="0 0 500 500" style="enable-background:new 0 0 500 500;" xml:space="preserve">
<style type="text/css">
	.st0{fill:#7209B7;}
</style>
<path class="st0" d="M460.8,221c0,0-72-124.7-76.9-138.9c0,0,18.7-40.6-2-60.8c0,0-31.6-44.6-66.1-4.1L302,29.3c0,0-51.3,0-52.3,0
	v0.1c-5.7,0-51.7,0-51.7,0l-13.8-12.2c-34.5-40.6-66.1,4.1-66.1,4.1c-20.7,20.3-2,60.8-2,60.8C111.2,96.3,39.2,221,39.2,221
	c-54.3,87.2-12.8,178.5-12.8,178.5C38.2,439,128,486.7,128,486.7c23.7,14.2,122.3,13.2,122.3,13.2v-0.1c8.1,0.1,99.1,0.4,121.7-13.2
	c0,0,89.8-47.7,101.6-87.2C473.6,399.4,515.1,308.2,460.8,221z M150.2,193.1c-24.8-10.7-22.9-10.7-22.9-10.7
	c-5.6-39.4,27.3-44.4,27.3-44.4c17.4-2.1,21.1,26.5,21.1,26.5C150.2,166.6,150.2,193.1,150.2,193.1z M257.1,463.3h-5.8
	C190.5,446.6,187.5,357,187.5,357c30.9,33.8,63.2,17.2,66.5,15.4l0-0.2c0,0,0.1,0,0.1,0.1c0.1-0.1,0.1-0.1,0.1-0.1l0,0.2
	c3.3,1.8,35.6,18.5,66.5-15.3C320.9,357,317.8,446.6,257.1,463.3z M294.5,320.1c-12.5,0.6-31.3,22.8-31.3,22.8
	c-7.5,12-13.8,0-13.8,0s-18.8-22.2-31.3-22.8c0,0-38.2-23.9-26.8-51.8l35.9,8.5c0,0,10.3,0,8-7.4c0,0-22.2-34.7-33-38.2
	c0,0,0.6-41,54.1-28.5l0,0.1c0,0,0.1,0,0.1,0l0-0.1c53.5-12.5,54.1,28.5,54.1,28.5c-10.8,3.4-33,38.2-33,38.2c-2.3,7.4,8,7.4,8,7.4
	l35.9-8.5C332.7,296.2,294.5,320.1,294.5,320.1z M363.1,192.2c0,0,0-26.5-25.4-28.6c0,0,3.7-28.6,21.1-26.5c0,0,32.9,5,27.3,44.4
	C386,181.5,387.9,181.5,363.1,192.2z"/>
</svg>
